# xmcd
#
# Track frame offsets:
# 150
# 15631
# 27094
# 40214
# 52833
# 64113
# 77694
# 92046
# 102805
# 115919
# 128892
# 138668
#
# Disc length: 2018 seconds
#
#
# Revision: 0
# Processed by: cddbd v1.5.2PL0 Copyright (c) Steve Scherf et al.
# Submitted via: FreeRIP 2.945 
#
DISCID=9507e00c
DTITLE=Poeta e Trovador - Mais Uma Noite de Amor
DYEAR=1981
DGENRE=Sertanejo
TTITLE0=O Prisioneiro
TTITLE1=O Bebum
TTITLE2=Sério Perigo
TTITLE3=Amigo Sincero
TTITLE4=Casa de Madeira
TTITLE5=Duas Vitimas
TTITLE6=Mais Uma Noite de Amor
TTITLE7=Peito Ferido
TTITLE8=Filho de Carreiro
TTITLE9=Doce Prazer
TTITLE10=Quarto de Pensão
TTITLE11=Lábios Que Me Beijam
EXTD=
EXTT0=Trovador e Martins Neto
EXTT1=Ronaldo Adriano e José Homero
EXTT2=Marrequinho e Ronaldo Adriano
EXTT3=Poeta e Noel Fernandes
EXTT4=Jacira Amaral
EXTT5=Trovador e Bekekê
EXTT6=Poeta e Trovador
EXTT7=Poeta, Cancioneiro e Vicente Dias
EXTT8=Poeta e Jonas Junior
EXTT9=Trovador e Leninha Mendes
EXTT10=Trovador e Leonel Rocha
EXTT11=Praense e Alcino Alves
PLAYORDER=
